
<svg version="1.0" xmlns="http://www.w3.org/2000/svg"
 width="500.000000pt" height="500.000000pt" viewBox="0 0 500.000000 500.000000"
 preserveAspectRatio="xMidYMid meet">

<g transform="translate(0.000000,500.000000) scale(0.100000,-0.100000)"
fill="#000000" stroke="none">
<path d="M2498 3499 c-151 -17 -277 -84 -344 -183 l-34 -51 0 113 0 112 -139
0 -140 0 -3 -457 c-3 -456 -3 -458 -26 -501 -31 -57 -82 -81 -175 -82 -81 0
-132 19 -169 63 l-27 32 -1 -177 0 -176 73 -12 c82 -14 224 -8 303 14 112 30
206 103 252 196 l19 39 21 -38 c27 -48 117 -133 168 -159 97 -49 182 -67 324
-67 189 0 310 36 410 122 33 28 45 34 48 23 10 -29 60 -69 95 -75 52 -10 85 1
124 40 29 29 33 39 33 88 0 40 -5 61 -21 81 -31 40 -76 59 -122 53 l-39 -5 6
47 c7 57 -9 152 -35 204 -55 107 -164 167 -422 232 -188 48 -246 70 -271 107
-36 51 -10 125 57 160 35 19 57 23 132 23 126 -1 182 -35 209 -126 l13 -44
138 -3 138 -3 -7 58 c-28 238 -276 387 -588 352z m-264 -659 c59 -40 147 -73
301 -114 185 -49 238 -71 276 -113 28 -32 31 -41 26 -82 -10 -85 -103 -137
-242 -135 -136 3 -229 72 -250 187 l-7 37 -109 0 -109 0 0 167 0 167 36 -42
c20 -23 55 -55 78 -72z"/>
</g>
</svg>
